# xmcd CD database file
#
# Track frame offsets:
#	150
#	26197
#	57295
#	82185
#	108652
#	133042
#	173167
#	190907
#	215460
#	243182
#
# Disc length: 3615 seconds
#
# Revision: 0
# Processed by: cddbd v1.5.2PL0 Copyright (c) Steve Scherf et al.
# Submitted via: CDex 1.70beta2
#
DISCID=8f0e1d0a
DTITLE=Horace Parlan - The Horace Parlan Trio
DYEAR=1998
DGENRE=Jazz
TTITLE0=Time On My Hands
TTITLE1=Kojo No Tsuki
TTITLE2=I'll Close My Eyes
TTITLE3=Party Time
TTITLE4=Never Let Me Go
TTITLE5=Wave
TTITLE6=Return Engagement
TTITLE7=Arrival
TTITLE8=Darn That Dream
TTITLE9=No Greater Love
EXTD=YEAR: 1998
EXTT0=
EXTT1=
EXTT2=
EXTT3=
EXTT4=
EXTT5=
EXTT6=
EXTT7=
EXTT8=
EXTT9=
PLAYORDER=
